# xmcd
#
# Track frame offsets:
#	150
#	12225
#	22920
#	36582
#	46847
#	59765
#	73635
#	86162
#	97267
#	108367
#	120350
#	135390
#	151082
#	167410
#	185887
#	199767
#	211652
#	224255
#	235117
#	248297
#	257532
#	265247
#	276355
#	292040
#	305282
#	317572
#	323935
#	337762
#
# Disc length: 4659 seconds
#
# Revision: 1
# Processed by: cddbd v1.5.1PL2 Copyright (c) Steve Scherf et al.
# Submitted via: audiograbber 1.83.01
#
DISCID=8b12311c
DTITLE=Nico Carstens - Die Lewenslied van
DYEAR=2001
DGENRE=Instrumental
TTITLE0=Outa in die Langpad
TTITLE1=Umfaan
TTITLE2=Shirley Wals
TTITLE3=Warm Patat
TTITLE4=Hasie
TTITLE5=Soetpatat
TTITLE6=Gertjie Wintervoël
TTITLE7=Jampot Polka
TTITLE8=Riksja Booi
TTITLE9=Vaalpens Polka
TTITLE10=Brakpan Kwela
TTITLE11=Goue Vingers
TTITLE12=Wag 'n Bietjie
TTITLE13=Zambezi
TTITLE14=Die Springbok Kwela
TTITLE15=Helena Cha Cha
TTITLE16=Herd Boy
TTITLE17=Nader Aan Jou
TTITLE18=Goue Tango
TTITLE19=Luanda
TTITLE20=Hound Dog
TTITLE21=Lente in Switzerland
TTITLE22=Boma Boma/Kombuis Kwela
TTITLE23=Brakpan Settees
TTITLE24=Helena Tango
TTITLE25=Whatever Will Be, Will Be
TTITLE26=Voom-Ba-Voom
TTITLE27=Boerenooi
EXTD=
EXTT0=
EXTT1=
EXTT2=
EXTT3=
EXTT4=
EXTT5=
EXTT6=
EXTT7=
EXTT8=
EXTT9=
EXTT10=
EXTT11=
EXTT12=
EXTT13=
EXTT14=
EXTT15=
EXTT16=
EXTT17=
EXTT18=
EXTT19=
EXTT20=
EXTT21=
EXTT22=
EXTT23=
EXTT24=
EXTT25=
EXTT26=
EXTT27=
PLAYORDER=
